<svg xmlns="http://www.w3.org/2000/svg" version="1.1" xmlns:xlink="http://www.w3.org/1999/xlink" xmlns:svgjs="http://svgjs.dev/svgjs" width="1000" height="623" viewBox="0 0 1000 623"><g transform="matrix(1,0,0,1,-0.6060606060606233,0.2799716599189992)"><svg viewBox="0 0 396 247" data-background-color="#ffffff" preserveAspectRatio="xMidYMid meet" height="623" width="1000" xmlns="http://www.w3.org/2000/svg" xmlns:xlink="http://www.w3.org/1999/xlink"><g id="tight-bounds" transform="matrix(1,0,0,1,0.2400000000000091,-0.09999999999999432)"><svg viewBox="0 0 395.52 247.2" height="247.2" width="395.52"><g><svg></svg></g><g><svg viewBox="0 0 395.52 247.2" height="247.2" width="395.52"><mask id="9a00a06b-be9b-4e25-ad4a-7d3b2e88a617"><rect width="395.52" height="247.2" fill="white"></rect><g transform="matrix(1,0,0,1,0,71.24454818330162)" id="clone"><svg viewBox="0 0 395.52 104.71090363339675" height="104.71090363339675" width="395.52"><g><svg viewBox="0 0 395.52 104.71090363339675" height="104.71090363339675" width="395.52"><g><svg viewBox="0 0 395.52 104.71090363339675" height="104.71090363339675" width="395.52"><g><svg viewBox="0 0 395.52 104.71090363339675" height="104.71090363339675" width="395.52"><g id="SvgjsG1108"><svg viewBox="0 0 395.52 104.71090363339675" height="104.71090363339675" width="395.52" id="SvgjsSvg1107"><g><svg viewBox="0 0 395.52 72.46977121192313" height="72.46977121192313" width="395.52"><g transform="matrix(1,0,0,1,0,0)"><svg width="395.52" viewBox="-1.5099999904632568 -38.54999923706055 225.0800018310547 42.05999755859375" height="72.46977121192313" data-palette-color="#233565"><path d="M29.39 0L1.49 0 1.49-4 5.32-4.74 5.32-30.79 1.49-31.52 1.49-35.55 28.81-35.55 28.81-26.17 23.68-26.17 23.32-30.44 11.96-30.44 11.96-20.95 24.22-20.95 24.22-15.8 11.96-15.8 11.96-5.08 23.95-5.08 24.32-9.45 29.39-9.45 29.39 0ZM48.78 0L33.4 0 33.4-4 37.25-4.81 37.25-30.71 33.4-31.52 33.4-35.55 37.25-35.55 48.65-35.55Q53.42-35.55 57.02-33.3 60.62-31.05 62.64-27.12 64.67-23.19 64.67-18.09L64.67-18.09 64.67-17.43Q64.67-12.4 62.68-8.46 60.69-4.52 57.11-2.26 53.54 0 48.78 0L48.78 0ZM43.89-30.42L43.89-5.1 48.44-5.1Q51.49-5.1 53.61-6.71 55.73-8.33 56.87-11.11 58.01-13.89 58.01-17.43L58.01-17.43 58.01-18.14Q58.01-21.73 56.87-24.5 55.73-27.27 53.61-28.85 51.49-30.42 48.44-30.42L48.44-30.42 43.89-30.42ZM85.22 0.51L85.22 0.51Q81.1 0.51 77.96-0.94 74.82-2.39 73.07-5.16 71.31-7.93 71.31-11.87L71.31-11.87 71.31-30.79 67.5-31.52 67.5-35.55 81.78-35.55 81.78-31.52 77.95-30.79 77.95-11.87Q77.95-9.45 78.84-7.84 79.73-6.23 81.37-5.42 83-4.61 85.22-4.61L85.22-4.61Q87.5-4.61 89.16-5.41 90.82-6.2 91.71-7.81 92.6-9.42 92.6-11.87L92.6-11.87 92.6-30.79 88.76-31.52 88.76-35.55 103.07-35.55 103.07-31.52 99.24-30.79 99.24-11.87Q99.24-7.91 97.48-5.14 95.72-2.37 92.57-0.93 89.42 0.51 85.22 0.51ZM120.04 0L105.73 0 105.73-4 109.54-4.74 109.54-30.79 105.73-31.52 105.73-35.55 109.54-35.55 119.23-35.55 129.29-10.3 129.44-10.3 139.18-35.55 152.75-35.55 152.75-31.52 148.92-30.79 148.92-4.74 152.75-4 152.75 0 138.44 0 138.44-4 142.47-4.74 142.47-12.28 142.57-28.08 142.45-28.1 131.61-0.66 126.7-0.66 115.59-27.93 115.45-27.91 115.84-12.87 115.84-4.74 120.04-4 120.04 0ZM165.18 0L153.48 0 153.48-4 156.04-4.37 167.59-35.55 174.21-35.55 185.66-4.37 188.2-4 188.2 0 176.5 0 176.5-4 179.02-4.47 177.28-9.69 164.42-9.69 162.69-4.47 165.18-4 165.18 0ZM170.42-27.29L166.05-14.7 175.65-14.7 171.28-27.34 170.94-28.37 170.79-28.37 170.42-27.29ZM205.14 0L190.83 0 190.83-4 194.67-4.74 194.67-30.79 190.83-31.52 190.83-35.55 194.67-35.55 207.63-35.55Q211.66-35.55 214.55-34.14 217.44-32.74 219.01-30.21 220.57-27.69 220.57-24.34L220.57-24.34Q220.57-20.97 219.01-18.47 217.44-15.97 214.55-14.58 211.66-13.18 207.63-13.18L207.63-13.18 201.31-13.18 201.31-4.74 205.14-4 205.14 0ZM201.31-30.42L201.31-18.31 207.63-18.31Q210.75-18.31 212.34-20 213.93-21.68 213.93-24.29L213.93-24.29Q213.93-26.93 212.34-28.67 210.75-30.42 207.63-30.42L207.63-30.42 201.31-30.42Z" opacity="1" transform="matrix(1,0,0,1,0,0)" fill="black" class="wordmark-text-0" id="SvgjsPath1106" stroke-width="5" stroke="black" stroke-linejoin="round"></path></svg></g></svg></g><g transform="matrix(1,0,0,1,2.5,81.75707738799844)"><svg viewBox="0 0 390.52 22.953826245398314" height="22.953826245398314" width="390.52"><g transform="matrix(1,0,0,1,0,0)"><svg width="390.52" viewBox="-2.439999997615814 -34.8799991607666 788.77001953125 47.29999923706055" height="22.953826245398314" data-palette-color="#233565"><path d="M0.56-30.37L0.76-22.51 2.98-22.19 4.27-28.13 11.47-28.13 11.47-2.95 7.35-1.81 7.18 0 20.34 0 20.68-1.95 16.16-2.78 16.16-28.13 23.61-28.13 24.54-22.49 26.86-22.12 27.69-30.37 0.56-30.37ZM41.77 0L42.01-2.12 36.33-2.95 36.33-12.3Q36.57-14.04 37.29-15.23 38.01-16.43 38.89-17.03 39.77-17.63 40.5-17.63L40.5-17.63Q41.21-17.63 41.99-17.37 42.77-17.11 43.48-16.67L43.48-16.67Q44.87-17.85 44.87-19.38L44.87-19.38Q44.87-20.48 44.11-21.3 43.36-22.12 42.16-22.12L42.16-22.12Q41.06-22.12 39.94-21.37 38.82-20.63 37.81-19.14 36.81-17.65 36.18-15.53L36.18-15.53 35.72-15.53 36.2-21.14 35.64-21.73 28.64-20.83 28.29-18.97 32.27-17.77 32.27-2.78 28.54-1.81 28.29 0 41.77 0ZM56.56 0.66Q59.39 0.66 61.74-0.78 64.08-2.22 65.44-4.83 66.79-7.45 66.79-10.77L66.79-10.77Q66.79-14.11 65.63-16.66 64.47-19.21 62.29-20.63 60.1-22.05 57.15-22.05L57.15-22.05Q54.37-22.05 51.94-20.65 49.51-19.26 48.02-16.61 46.53-13.96 46.53-10.4L46.53-10.4Q46.53-7.23 47.71-4.72 48.9-2.22 51.15-0.78 53.41 0.66 56.56 0.66L56.56 0.66ZM56.12-19.48Q58.3-19.48 59.72-17.88 61.15-16.28 61.8-13.84 62.45-11.4 62.45-8.76L62.45-8.76Q62.45-6.96 61.88-5.35 61.32-3.74 60.18-2.72 59.03-1.71 57.39-1.71L57.39-1.71Q55.12-1.71 53.66-3.2 52.19-4.69 51.53-7.06 50.87-9.42 50.87-12.13L50.87-12.13Q50.87-14.14 51.44-15.81 52-17.48 53.18-18.48 54.37-19.48 56.12-19.48L56.12-19.48ZM71.89-17.77L71.89-6.52Q71.89-2.78 73.34-1.11 74.8 0.56 77.34 0.56L77.34 0.56Q81.73 0.56 84.32-3.2L84.32-3.2 84.64-3.2 84.64-2.98Q84.64-1.39 85.55-0.42 86.47 0.56 88.22 0.56L88.22 0.56Q89.3 0.56 90.03 0.46 90.76 0.37 91.91 0.1L91.91 0.1 92.13-1.93 91.01-2.17Q90.01-2.39 89.49-2.64 88.98-2.88 88.68-3.48 88.37-4.08 88.37-5.25L88.37-5.25 88.37-20.97 87.86-21.56 80.68-20.9 80.44-18.65 84.32-17.63 84.32-4.66Q83.44-3.76 82.38-3.27 81.32-2.78 79.78-2.78L79.78-2.78Q76.02-2.78 76.02-7.74L76.02-7.74 76.02-20.97 75.41-21.56 68.86-21.04 68.52-19.12 71.89-17.77ZM92.37-19.48L95.35-18.46 102.14 0.68 105.24 0.24 111.9-18.51 114.54-19.51 114.83-21.31 105.48-21.31 105.14-19.48 109.07-18.46 104.38-4.74 99.79-18.51 103.33-19.51 103.53-21.31 92.62-21.31 92.37-19.48ZM125.06 0.73Q127.45 0.73 129.54-0.13 131.63-1 133.09-2.54L133.09-2.54 132.58-3.83Q131.38-3.2 130.48-2.91 129.58-2.61 128.89-2.55 128.21-2.49 127.04-2.49L127.04-2.49Q124.89-2.49 123.39-3.72 121.89-4.96 121.11-6.88 120.32-8.81 120.23-10.86L120.23-10.86 132.04-11.01Q132.19-11.65 132.31-12.63 132.43-13.62 132.43-14.18L132.43-14.18Q132.43-16.67 131.57-18.42 130.7-20.17 129.21-21.06 127.72-21.95 125.92-21.95L125.92-21.95Q123.47-21.95 121.15-20.56 118.84-19.17 117.36-16.55 115.88-13.94 115.88-10.45L115.88-10.45Q115.88-6.91 117.18-4.37 118.47-1.83 120.58-0.55 122.69 0.73 125.06 0.73L125.06 0.73ZM124.72-19.56Q128.09-19.56 128.09-15.01L128.09-15.01Q128.09-14.65 128.05-14.12 128.01-13.6 127.94-13.33L127.94-13.33 120.28-12.77Q120.4-15.01 121.07-16.54 121.74-18.07 122.72-18.81 123.69-19.56 124.72-19.56L124.72-19.56ZM135.46-2.12L135.56 0 151.94 0 152.96-6.52 151.33-6.71 149.01-2.42 140.22-2.42 152.48-19.51 152.48-21.31 136.07-21.31 135.87-14.84 137.75-14.53 139.19-19.04 147.42-19.04 135.46-2.12ZM161.06-28.52L164.65-27.49 174.86 0.59 178.57-0.1 188.94-27.59 192.17-28.52 192.34-30.37 181.23-30.37 181.06-28.52 185.5-27.49 177.69-6.13 170.05-27.59 174.2-28.52 174.44-30.37 161.31-30.37 161.06-28.52ZM204.23 0.66Q207.06 0.66 209.4-0.78 211.75-2.22 213.1-4.83 214.46-7.45 214.46-10.77L214.46-10.77Q214.46-14.11 213.3-16.66 212.14-19.21 209.95-20.63 207.77-22.05 204.81-22.05L204.81-22.05Q202.03-22.05 199.6-20.65 197.17-19.26 195.68-16.61 194.19-13.96 194.19-10.4L194.19-10.4Q194.19-7.23 195.38-4.72 196.56-2.22 198.82-0.78 201.08 0.66 204.23 0.66L204.23 0.66ZM203.79-19.48Q205.96-19.48 207.39-17.88 208.82-16.28 209.46-13.84 210.11-11.4 210.11-8.76L210.11-8.76Q210.11-6.96 209.55-5.35 208.99-3.74 207.84-2.72 206.69-1.71 205.06-1.71L205.06-1.71Q202.79-1.71 201.32-3.2 199.86-4.69 199.2-7.06 198.54-9.42 198.54-12.13L198.54-12.13Q198.54-14.14 199.1-15.81 199.66-17.48 200.84-18.48 202.03-19.48 203.79-19.48L203.79-19.48ZM219.51-18.63L219.41-6.35Q219.38-2.54 220.76-0.99 222.14 0.56 224.61 0.56L224.61 0.56Q226.66 0.56 228.37-0.39 230.08-1.34 231.23-3.03L231.23-3.03 230.71-4.35Q230.71-4.32 230.14-3.96 229.56-3.59 228.78-3.28 228-2.98 227.2-2.98L227.2-2.98Q225.9-2.98 225.12-3.42 224.34-3.86 223.97-4.91 223.61-5.96 223.61-7.79L223.61-7.79 223.68-18.58 230.42-18.58 230.64-20.73 223.73-20.73 223.73-26.54 222.44-26.54Q221.12-24.73 219.51-22.95 217.89-21.17 216.41-19.95L216.41-19.95 216.41-18.63 219.51-18.63ZM246.02 0L246.26-2.12 240.57-2.95 240.57-12.3Q240.82-14.04 241.54-15.23 242.26-16.43 243.14-17.03 244.02-17.63 244.75-17.63L244.75-17.63Q245.46-17.63 246.24-17.37 247.02-17.11 247.73-16.67L247.73-16.67Q249.12-17.85 249.12-19.38L249.12-19.38Q249.12-20.48 248.36-21.3 247.6-22.12 246.41-22.12L246.41-22.12Q245.31-22.12 244.19-21.37 243.06-20.63 242.06-19.14 241.06-17.65 240.43-15.53L240.43-15.53 239.96-15.53 240.45-21.14 239.89-21.73 232.88-20.83 232.54-18.97 236.52-17.77 236.52-2.78 232.79-1.81 232.54 0 246.02 0ZM259.98 0.73Q262.37 0.73 264.46-0.13 266.55-1 268.01-2.54L268.01-2.54 267.5-3.83Q266.3-3.2 265.4-2.91 264.5-2.61 263.81-2.55 263.13-2.49 261.96-2.49L261.96-2.49Q259.81-2.49 258.31-3.72 256.81-4.96 256.02-6.88 255.24-8.81 255.15-10.86L255.15-10.86 266.96-11.01Q267.11-11.65 267.23-12.63 267.35-13.62 267.35-14.18L267.35-14.18Q267.35-16.67 266.49-18.42 265.62-20.17 264.13-21.06 262.64-21.95 260.83-21.95L260.83-21.95Q258.39-21.95 256.07-20.56 253.75-19.17 252.28-16.55 250.8-13.94 250.8-10.45L250.8-10.45Q250.8-6.91 252.09-4.37 253.39-1.83 255.5-0.55 257.61 0.73 259.98 0.73L259.98 0.73ZM259.64-19.56Q263.01-19.56 263.01-15.01L263.01-15.01Q263.01-14.65 262.97-14.12 262.93-13.6 262.86-13.33L262.86-13.33 255.19-12.77Q255.32-15.01 255.99-16.54 256.66-18.07 257.64-18.81 258.61-19.56 259.64-19.56L259.64-19.56ZM289.74 0Q295.74 0 299.94-2.19 304.14-4.37 306.25-8 308.36-11.62 308.36-15.94L308.36-15.94Q308.36-20.04 306.73-23.34 305.09-26.64 301.17-28.67 297.26-30.71 290.76-30.71L290.76-30.71Q285.83-30.71 278.24-29.52L278.24-29.52 278.02-27.66 282.22-26.93 282.22-3.15 278.02-1.81 277.67 0 289.74 0ZM286.88-28.1Q287.86-28.2 289.86-28.2L289.86-28.2Q294.2-28.2 297.21-26.4 300.21-24.61 301.71-21.52 303.21-18.43 303.21-14.6L303.21-14.6Q303.21-11.23 301.78-8.5 300.36-5.76 297.47-4.15 294.59-2.54 290.42-2.54L290.42-2.54 286.88-2.54 286.88-28.1ZM319.4 0.73Q321.79 0.73 323.88-0.13 325.96-1 327.43-2.54L327.43-2.54 326.92-3.83Q325.72-3.2 324.82-2.91 323.91-2.61 323.23-2.55 322.55-2.49 321.37-2.49L321.37-2.49Q319.23-2.49 317.72-3.72 316.22-4.96 315.44-6.88 314.66-8.81 314.56-10.86L314.56-10.86 326.38-11.01Q326.53-11.65 326.65-12.63 326.77-13.62 326.77-14.18L326.77-14.18Q326.77-16.67 325.9-18.42 325.04-20.17 323.55-21.06 322.06-21.95 320.25-21.95L320.25-21.95Q317.81-21.95 315.49-20.56 313.17-19.17 311.69-16.55 310.22-13.94 310.22-10.45L310.22-10.45Q310.22-6.91 311.51-4.37 312.8-1.83 314.92-0.55 317.03 0.73 319.4 0.73L319.4 0.73ZM319.05-19.56Q322.42-19.56 322.42-15.01L322.42-15.01Q322.42-14.65 322.39-14.12 322.35-13.6 322.28-13.33L322.28-13.33 314.61-12.77Q314.73-15.01 315.4-16.54 316.08-18.07 317.05-18.81 318.03-19.56 319.05-19.56L319.05-19.56ZM336.8 0.83Q338.68 0.83 340.43 0.02 342.17-0.78 343.25-2.21 344.32-3.64 344.32-5.37L344.32-5.37Q344.32-7.01 343.47-8.26 342.61-9.52 341.4-10.38 340.19-11.23 338.24-12.3L338.24-12.3Q336.63-13.21 335.73-13.82 334.82-14.43 334.21-15.22 333.6-16.02 333.6-16.99L333.6-16.99Q333.6-18.21 334.35-19.07 335.09-19.92 336.34-19.92L336.34-19.92Q337.75-19.92 338.73-18.54 339.71-17.16 340.15-14.38L340.15-14.38Q341.73-14.48 342.65-15.36 343.56-16.24 343.56-17.63L343.56-17.63Q343.56-18.85 342.82-19.84 342.07-20.83 340.71-21.4 339.34-21.97 337.58-21.97L337.58-21.97Q335.26-21.97 333.61-20.98 331.97-20 331.14-18.51 330.31-17.02 330.31-15.5L330.31-15.5Q330.31-13.75 331.2-12.4 332.09-11.06 333.35-10.14 334.6-9.23 336.61-8.08L336.61-8.08Q338.07-7.25 338.89-6.7 339.71-6.15 340.24-5.48 340.78-4.81 340.78-4.03L340.78-4.03Q340.78-2.76 339.88-2.16 338.97-1.56 337.56-1.56L337.56-1.56Q336.04-1.56 334.77-2.77 333.5-3.98 332.7-6.37L332.7-6.37Q331.33-6.27 330.53-5.3 329.72-4.32 329.72-2.95L329.72-2.95Q329.72-1.98 330.6-1.1 331.48-0.22 333.09 0.31 334.7 0.83 336.8 0.83L336.8 0.83ZM349.3-18.63L349.2-6.35Q349.18-2.54 350.56-0.99 351.94 0.56 354.4 0.56L354.4 0.56Q356.45 0.56 358.16-0.39 359.87-1.34 361.02-3.03L361.02-3.03 360.5-4.35Q360.5-4.32 359.93-3.96 359.36-3.59 358.58-3.28 357.79-2.98 356.99-2.98L356.99-2.98Q355.69-2.98 354.91-3.42 354.13-3.86 353.77-4.91 353.4-5.96 353.4-7.79L353.4-7.79 353.47-18.58 360.21-18.58 360.43-20.73 353.52-20.73 353.52-26.54 352.23-26.54Q350.91-24.73 349.3-22.95 347.69-21.17 346.2-19.95L346.2-19.95 346.2-18.63 349.3-18.63ZM368.07-26.12Q368.85-26.12 369.55-26.53 370.24-26.93 370.65-27.61 371.05-28.3 371.05-29.1L371.05-29.1Q371.05-30.27 370.17-31.08 369.29-31.88 368.07-31.88L368.07-31.88Q366.9-31.88 366.03-31.09 365.16-30.3 365.16-29.15L365.16-29.15Q365.16-28.34 365.56-27.65 365.95-26.95 366.62-26.54 367.29-26.12 368.07-26.12L368.07-26.12ZM362.26 0L373.98 0 374.25-1.95 370.34-2.83 370.34-21 369.73-21.61 362.87-21.04 362.55-19.19 366.24-17.85 366.24-2.83 362.55-1.93 362.26 0ZM386.74 0L387.09-1.93 383.45-2.78 383.45-16.48Q384.35-17.48 385.62-18.03 386.89-18.58 388.26-18.58L388.26-18.58Q390.19-18.58 391.35-17.47 392.51-16.36 392.51-14.09L392.51-14.09 392.51-2.78 389.14-1.78 388.89 0 399.85 0 400.1-1.93 396.58-2.78 396.58-15.04Q396.58-18.33 395.07-20.14 393.56-21.95 390.7-21.95L390.7-21.95Q388.55-21.95 386.65-20.85 384.74-19.75 383.35-18.09L383.35-18.09 383.11-18.09 383.52-21.22 383.11-21.68 375.83-20.73 375.59-18.87 379.35-17.6 379.35-2.78 375.66-1.78 375.42 0 386.74 0ZM406.32 0.59Q408.96 0.59 410.63-0.62 412.3-1.83 413.01-3.2L413.01-3.2 413.28-3.2 413.28-2.83Q413.28-2.03 413.66-1.28 414.04-0.54 414.89-0.05 415.75 0.44 417.06 0.44L417.06 0.44Q418.09 0.44 419.26 0.17L419.26 0.17Q420.02 0.02 420.38-0.02L420.38-0.02 420.7-2.12 419.48-2.34Q418.33-2.54 417.76-2.87 417.19-3.2 416.97-3.82 416.75-4.44 416.75-5.62L416.75-5.62 416.75-14.48Q416.75-18.38 415.34-20.18 413.94-21.97 410.72-21.97L410.72-21.97Q409.01-21.97 407.03-21.26 405.05-20.56 403.71-19.4 402.37-18.24 402.37-16.97L402.37-16.97Q402.37-15.38 403.34-14.92 404.32-14.45 405.76-14.45L405.76-14.45Q405.98-16.92 406.14-17.85 406.3-18.77 406.81-19.24 407.32-19.7 408.47-19.7L408.47-19.7Q410.79-19.7 411.79-17.86 412.79-16.02 412.79-13.18L412.79-13.18 412.79-11.84Q408.98-11.57 406.46-10.44 403.93-9.3 402.73-7.64 401.54-5.98 401.54-4.1L401.54-4.1Q401.54-2.66 402.18-1.6 402.83-0.54 403.93 0.02 405.03 0.59 406.32 0.59L406.32 0.59ZM412.79-10.45L412.79-4.59Q412.06-3.78 410.89-3.1 409.72-2.42 408.54-2.42L408.54-2.42Q407.69-2.42 407.07-2.86 406.44-3.3 406.13-3.96 405.81-4.61 405.81-5.25L405.81-5.25Q405.81-7.13 407.4-8.41 408.98-9.69 412.79-10.45L412.79-10.45ZM424.43-18.63L424.34-6.35Q424.31-2.54 425.69-0.99 427.07 0.56 429.54 0.56L429.54 0.56Q431.59 0.56 433.3-0.39 435.01-1.34 436.15-3.03L436.15-3.03 435.64-4.35Q435.64-4.32 435.07-3.96 434.49-3.59 433.71-3.28 432.93-2.98 432.13-2.98L432.13-2.98Q430.83-2.98 430.05-3.42 429.27-3.86 428.9-4.91 428.54-5.96 428.54-7.79L428.54-7.79 428.61-18.58 435.35-18.58 435.57-20.73 428.66-20.73 428.66-26.54 427.36-26.54Q426.05-24.73 424.43-22.95 422.82-21.17 421.33-19.95L421.33-19.95 421.33-18.63 424.43-18.63ZM443.21-26.12Q443.99-26.12 444.68-26.53 445.38-26.93 445.78-27.61 446.19-28.3 446.19-29.1L446.19-29.1Q446.19-30.27 445.31-31.08 444.43-31.88 443.21-31.88L443.21-31.88Q442.03-31.88 441.17-31.09 440.3-30.3 440.3-29.15L440.3-29.15Q440.3-28.34 440.69-27.65 441.08-26.95 441.75-26.54 442.43-26.12 443.21-26.12L443.21-26.12ZM437.4 0L449.11 0 449.38-1.95 445.48-2.83 445.48-21 444.87-21.61 438.01-21.04 437.69-19.19 441.38-17.85 441.38-2.83 437.69-1.93 437.4 0ZM460.95 0.66Q463.79 0.66 466.13-0.78 468.47-2.22 469.83-4.83 471.18-7.45 471.18-10.77L471.18-10.77Q471.18-14.11 470.02-16.66 468.86-19.21 466.68-20.63 464.49-22.05 461.54-22.05L461.54-22.05Q458.76-22.05 456.33-20.65 453.9-19.26 452.41-16.61 450.92-13.96 450.92-10.4L450.92-10.4Q450.92-7.23 452.1-4.72 453.29-2.22 455.55-0.78 457.8 0.66 460.95 0.66L460.95 0.66ZM460.51-19.48Q462.69-19.48 464.11-17.88 465.54-16.28 466.19-13.84 466.84-11.4 466.84-8.76L466.84-8.76Q466.84-6.96 466.28-5.35 465.71-3.74 464.57-2.72 463.42-1.71 461.78-1.71L461.78-1.71Q459.51-1.71 458.05-3.2 456.58-4.69 455.92-7.06 455.26-9.42 455.26-12.13L455.26-12.13Q455.26-14.14 455.83-15.81 456.39-17.48 457.57-18.48 458.76-19.48 460.51-19.48L460.51-19.48ZM484.68 0L485.02-1.93 481.39-2.78 481.39-16.48Q482.29-17.48 483.56-18.03 484.83-18.58 486.19-18.58L486.19-18.58Q488.12-18.58 489.28-17.47 490.44-16.36 490.44-14.09L490.44-14.09 490.44-2.78 487.07-1.78 486.83 0 497.79 0 498.04-1.93 494.52-2.78 494.52-15.04Q494.52-18.33 493.01-20.14 491.49-21.95 488.64-21.95L488.64-21.95Q486.49-21.95 484.58-20.85 482.68-19.75 481.29-18.09L481.29-18.09 481.04-18.09 481.46-21.22 481.04-21.68 473.77-20.73 473.52-18.87 477.28-17.6 477.28-2.78 473.6-1.78 473.35 0 484.68 0ZM515.05 0.51Q517.37 0.51 518.98-0.51 520.59-1.54 521.81-3.2L521.81-3.2 522.03-3.2 522.03-3.03Q522.03-1.44 522.97-0.44 523.91 0.56 525.67 0.56L525.67 0.56Q526.77 0.56 527.46 0.48 528.16 0.39 529.26 0.1L529.26 0.1 529.52-1.93 528.43-2.17Q527.38-2.42 526.88-2.62 526.38-2.83 526.07-3.43 525.77-4.03 525.77-5.25L525.77-5.25 525.77-31.03 525.25-31.62 518.47-31.03 518.12-29.2 521.83-27.86 521.83-24.02 522.13-20.9 521.96-20.9Q521.35-21.34 520.15-21.66 518.95-21.97 517.76-21.97L517.76-21.97Q515.22-21.97 512.74-20.36 510.26-18.75 508.68-15.94 507.09-13.13 507.09-9.74L507.09-9.74Q507.09-6.49 508.15-4.17 509.21-1.86 511.03-0.67 512.85 0.51 515.05 0.51L515.05 0.51ZM516.59-19.58Q517.88-19.58 519.38-18.68 520.88-17.77 521.81-16.26L521.81-16.26 521.81-4.81Q521.1-3.98 519.65-3.27 518.2-2.56 516.78-2.56L516.78-2.56Q515.22-2.56 514-3.55 512.78-4.54 512.08-6.51 511.39-8.47 511.39-11.28L511.39-11.28Q511.39-15.06 512.63-17.32 513.88-19.58 516.59-19.58L516.59-19.58ZM531.08-31.79L532.4-21.78 534.67-22.05 535.55-31.4 531.08-31.79ZM536.28 0L547.71 0 547.98-1.95 543.44-3.03 545.9-10.55 556.13-10.55 558.79-3.15 554.62-1.81 554.32 0 566.9 0 567.12-1.95 563.77-3.03 554.25-30.96 550.56-30.2 540.14-3.15 536.5-1.81 536.28 0ZM546.83-13.04L551.37-25.24 555.42-13.04 546.83-13.04ZM579.81 9.08L580.1 7.13 576.29 6.27 576.29-16.26Q577.27-17.29 578.58-18.02 579.88-18.75 581.3-18.75L581.3-18.75Q583.62-18.75 584.79-16.52 585.96-14.28 585.96-9.91L585.96-9.91Q585.96-6.37 584.64-4.27 583.33-2.17 580.86-2.17L580.86-2.17Q579.42-2.17 578.69-2.28 577.95-2.39 577.12-2.71L577.12-2.71 577.27 0.24Q578.49 0.46 579.57 0.46L579.57 0.46Q582.67 0.46 585.14-1.05 587.62-2.56 589.03-5.27 590.43-7.98 590.43-11.4L590.43-11.4Q590.43-14.99 589.48-17.35 588.53-19.7 586.87-20.83 585.21-21.95 583.03-21.95L583.03-21.95Q580.88-21.95 579.18-20.75 577.47-19.56 576.29-17.92L576.29-17.92 576.12-17.92 576.47-21.07 575.95-21.53 568.85-20.63 568.56-18.75 572.32-17.63 572.32 6.25 568.58 7.18 568.43 9.08 579.81 9.08ZM603.44 9.08L603.73 7.13 599.92 6.27 599.92-16.26Q600.9-17.29 602.21-18.02 603.51-18.75 604.93-18.75L604.93-18.75Q607.25-18.75 608.42-16.52 609.59-14.28 609.59-9.91L609.59-9.91Q609.59-6.37 608.27-4.27 606.96-2.17 604.49-2.17L604.49-2.17Q603.05-2.17 602.32-2.28 601.59-2.39 600.76-2.71L600.76-2.71 600.9 0.24Q602.12 0.46 603.2 0.46L603.2 0.46Q606.3 0.46 608.78-1.05 611.25-2.56 612.66-5.27 614.06-7.98 614.06-11.4L614.06-11.4Q614.06-14.99 613.11-17.35 612.16-19.7 610.5-20.83 608.84-21.95 606.66-21.95L606.66-21.95Q604.51-21.95 602.81-20.75 601.1-19.56 599.92-17.92L599.92-17.92 599.75-17.92 600.1-21.07 599.58-21.53 592.48-20.63 592.19-18.75 595.95-17.63 595.95 6.25 592.21 7.18 592.06 9.08 603.44 9.08ZM629.83 0L630.07-2.12 624.39-2.95 624.39-12.3Q624.63-14.04 625.35-15.23 626.07-16.43 626.95-17.03 627.83-17.63 628.56-17.63L628.56-17.63Q629.27-17.63 630.05-17.37 630.83-17.11 631.54-16.67L631.54-16.67Q632.93-17.85 632.93-19.38L632.93-19.38Q632.93-20.48 632.17-21.3 631.42-22.12 630.22-22.12L630.22-22.12Q629.12-22.12 628-21.37 626.88-20.63 625.87-19.14 624.87-17.65 624.24-15.53L624.24-15.53 623.78-15.53 624.26-21.14 623.7-21.73 616.69-20.83 616.35-18.97 620.33-17.77 620.33-2.78 616.6-1.81 616.35 0 629.83 0ZM643.79 0.73Q646.18 0.73 648.27-0.13 650.36-1 651.82-2.54L651.82-2.54 651.31-3.83Q650.12-3.2 649.21-2.91 648.31-2.61 647.63-2.55 646.94-2.49 645.77-2.49L645.77-2.49Q643.62-2.49 642.12-3.72 640.62-4.96 639.84-6.88 639.06-8.81 638.96-10.86L638.96-10.86 650.77-11.01Q650.92-11.65 651.04-12.63 651.17-13.62 651.17-14.18L651.17-14.18Q651.17-16.67 650.3-18.42 649.43-20.17 647.94-21.06 646.45-21.95 644.65-21.95L644.65-21.95Q642.21-21.95 639.89-20.56 637.57-19.17 636.09-16.55 634.61-13.94 634.61-10.45L634.61-10.45Q634.61-6.91 635.91-4.37 637.2-1.83 639.31-0.55 641.42 0.73 643.79 0.73L643.79 0.73ZM643.45-19.56Q646.82-19.56 646.82-15.01L646.82-15.01Q646.82-14.65 646.78-14.12 646.75-13.6 646.67-13.33L646.67-13.33 639.01-12.77Q639.13-15.01 639.8-16.54 640.47-18.07 641.45-18.81 642.42-19.56 643.45-19.56L643.45-19.56ZM665.13 0L665.47-1.93 661.83-2.78 661.83-16.48Q662.73-17.48 664-18.03 665.27-18.58 666.64-18.58L666.64-18.58Q668.57-18.58 669.73-17.47 670.89-16.36 670.89-14.09L670.89-14.09 670.89-2.78 667.52-1.78 667.28 0 678.24 0 678.48-1.93 674.97-2.78 674.97-15.04Q674.97-18.33 673.45-20.14 671.94-21.95 669.08-21.95L669.08-21.95Q666.93-21.95 665.03-20.85 663.13-19.75 661.73-18.09L661.73-18.09 661.49-18.09 661.9-21.22 661.49-21.68 654.21-20.73 653.97-18.87 657.73-17.6 657.73-2.78 654.04-1.78 653.8 0 665.13 0ZM682.56-18.63L682.46-6.35Q682.43-2.54 683.81-0.99 685.19 0.56 687.66 0.56L687.66 0.56Q689.71 0.56 691.42-0.39 693.13-1.34 694.28-3.03L694.28-3.03 693.76-4.35Q693.76-4.32 693.19-3.96 692.62-3.59 691.83-3.28 691.05-2.98 690.25-2.98L690.25-2.98Q688.95-2.98 688.17-3.42 687.39-3.86 687.02-4.91 686.66-5.96 686.66-7.79L686.66-7.79 686.73-18.58 693.47-18.58 693.69-20.73 686.78-20.73 686.78-26.54 685.49-26.54Q684.17-24.73 682.56-22.95 680.95-21.17 679.46-19.95L679.46-19.95 679.46-18.63 682.56-18.63ZM701.33-26.12Q702.11-26.12 702.81-26.53 703.5-26.93 703.9-27.61 704.31-28.3 704.31-29.1L704.31-29.1Q704.31-30.27 703.43-31.08 702.55-31.88 701.33-31.88L701.33-31.88Q700.16-31.88 699.29-31.09 698.42-30.3 698.42-29.15L698.42-29.15Q698.42-28.34 698.81-27.65 699.2-26.95 699.88-26.54 700.55-26.12 701.33-26.12L701.33-26.12ZM695.52 0L707.24 0 707.51-1.95 703.6-2.83 703.6-21 702.99-21.61 696.13-21.04 695.81-19.19 699.5-17.85 699.5-2.83 695.81-1.93 695.52 0ZM716.07 0.83Q717.95 0.83 719.7 0.02 721.44-0.78 722.52-2.21 723.59-3.64 723.59-5.37L723.59-5.37Q723.59-7.01 722.74-8.26 721.88-9.52 720.67-10.38 719.47-11.23 717.51-12.3L717.51-12.3Q715.9-13.21 715-13.82 714.09-14.43 713.48-15.22 712.87-16.02 712.87-16.99L712.87-16.99Q712.87-18.21 713.62-19.07 714.36-19.92 715.61-19.92L715.61-19.92Q717.02-19.92 718-18.54 718.98-17.16 719.42-14.38L719.42-14.38Q721-14.48 721.92-15.36 722.83-16.24 722.83-17.63L722.83-17.63Q722.83-18.85 722.09-19.84 721.35-20.83 719.98-21.4 718.61-21.97 716.85-21.97L716.85-21.97Q714.53-21.97 712.89-20.98 711.24-20 710.41-18.51 709.58-17.02 709.58-15.5L709.58-15.5Q709.58-13.75 710.47-12.4 711.36-11.06 712.62-10.14 713.87-9.23 715.88-8.08L715.88-8.08Q717.34-7.25 718.16-6.7 718.98-6.15 719.51-5.48 720.05-4.81 720.05-4.03L720.05-4.03Q720.05-2.76 719.15-2.16 718.24-1.56 716.83-1.56L716.83-1.56Q715.32-1.56 714.05-2.77 712.78-3.98 711.97-6.37L711.97-6.37Q710.6-6.27 709.8-5.3 708.99-4.32 708.99-2.95L708.99-2.95Q708.99-1.98 709.87-1.1 710.75-0.22 712.36 0.31 713.97 0.83 716.07 0.83L716.07 0.83ZM733.09 0.83Q734.97 0.83 736.71 0.02 738.46-0.78 739.53-2.21 740.61-3.64 740.61-5.37L740.61-5.37Q740.61-7.01 739.75-8.26 738.9-9.52 737.69-10.38 736.48-11.23 734.53-12.3L734.53-12.3Q732.92-13.21 732.01-13.82 731.11-14.43 730.5-15.22 729.89-16.02 729.89-16.99L729.89-16.99Q729.89-18.21 730.63-19.07 731.38-19.92 732.62-19.92L732.62-19.92Q734.04-19.92 735.01-18.54 735.99-17.16 736.43-14.38L736.43-14.38Q738.02-14.48 738.93-15.36 739.85-16.24 739.85-17.63L739.85-17.63Q739.85-18.85 739.1-19.84 738.36-20.83 736.99-21.4 735.63-21.97 733.87-21.97L733.87-21.97Q731.55-21.97 729.9-20.98 728.25-20 727.42-18.51 726.59-17.02 726.59-15.5L726.59-15.5Q726.59-13.75 727.48-12.4 728.37-11.06 729.63-10.14 730.89-9.23 732.89-8.08L732.89-8.08Q734.36-7.25 735.17-6.7 735.99-6.15 736.53-5.48 737.07-4.81 737.07-4.03L737.07-4.03Q737.07-2.76 736.16-2.16 735.26-1.56 733.84-1.56L733.84-1.56Q732.33-1.56 731.06-2.77 729.79-3.98 728.98-6.37L728.98-6.37Q727.62-6.27 726.81-5.3 726.01-4.32 726.01-2.95L726.01-2.95Q726.01-1.98 726.89-1.1 727.76-0.22 729.38 0.31 730.99 0.83 733.09 0.83L733.09 0.83ZM747.73 0.59Q750.37 0.59 752.04-0.62 753.71-1.83 754.42-3.2L754.42-3.2 754.69-3.2 754.69-2.83Q754.69-2.03 755.07-1.28 755.45-0.54 756.3-0.05 757.16 0.44 758.47 0.44L758.47 0.44Q759.5 0.44 760.67 0.17L760.67 0.17Q761.43 0.02 761.79-0.02L761.79-0.02 762.11-2.12 760.89-2.34Q759.74-2.54 759.17-2.87 758.6-3.2 758.38-3.82 758.16-4.44 758.16-5.62L758.16-5.62 758.16-14.48Q758.16-18.38 756.75-20.18 755.35-21.97 752.13-21.97L752.13-21.97Q750.42-21.97 748.44-21.26 746.46-20.56 745.12-19.4 743.78-18.24 743.78-16.97L743.78-16.97Q743.78-15.38 744.75-14.92 745.73-14.45 747.17-14.45L747.17-14.45Q747.39-16.92 747.55-17.85 747.71-18.77 748.22-19.24 748.73-19.7 749.88-19.7L749.88-19.7Q752.2-19.7 753.2-17.86 754.2-16.02 754.2-13.18L754.2-13.18 754.2-11.84Q750.39-11.57 747.87-10.44 745.34-9.3 744.14-7.64 742.95-5.98 742.95-4.1L742.95-4.1Q742.95-2.66 743.59-1.6 744.24-0.54 745.34 0.02 746.44 0.59 747.73 0.59L747.73 0.59ZM754.2-10.45L754.2-4.59Q753.47-3.78 752.3-3.1 751.13-2.42 749.95-2.42L749.95-2.42Q749.1-2.42 748.48-2.86 747.85-3.3 747.54-3.96 747.22-4.61 747.22-5.25L747.22-5.25Q747.22-7.13 748.81-8.41 750.39-9.69 754.2-10.45L754.2-10.45ZM771.48 9.42Q774.22 9.42 776.83 8.25 779.44 7.08 781.07 5.19 782.69 3.3 782.69 1.22L782.69 1.22Q782.69-1.34 780.8-2.51 778.91-3.69 775.93-3.69L775.93-3.69 772.61-3.69Q769.97-3.69 769.06-4.14 768.14-4.59 768.14-5.44L768.14-5.44Q768.14-6.32 769.36-7.59L769.36-7.59Q769.65-7.52 770.29-7.43 770.92-7.35 771.56-7.35L771.56-7.35Q773.46-7.35 775.38-8.26 777.3-9.18 778.55-10.84 779.81-12.5 779.81-14.62L779.81-14.62Q779.81-15.45 779.54-16.41 779.27-17.36 778.98-18.02L778.98-18.02 778.98-18.43 781.98-17.46 782.37-17.46 783.33-20.17 782.84-20.73Q782.08-20.65 780.32-20.52 778.56-20.39 777.59-20.34L777.59-20.34Q775.46-21.88 772.46-21.88L772.46-21.88Q770.43-21.88 768.54-20.84 766.65-19.8 765.48-18.07 764.31-16.33 764.31-14.38L764.31-14.38Q764.31-12.87 765-11.5 765.7-10.13 766.65-9.24 767.6-8.35 768.29-8.18L768.29-8.18 768.29-8.01Q767.38-7.64 766.42-6.93 765.45-6.23 764.83-5.43 764.21-4.64 764.21-4L764.21-4Q764.21-2.95 764.82-2.08 765.43-1.2 766.55-0.66L766.55-0.66 766.55-0.44Q762.65 1.78 762.65 3.96L762.65 3.96Q762.65 6.86 765.15 8.14 767.65 9.42 771.48 9.42L771.48 9.42ZM771.88-20.09Q773.1-20.09 773.99-19.19 774.88-18.29 775.35-16.92 775.83-15.55 775.83-14.16L775.83-14.16Q775.83-11.67 774.89-10.47 773.95-9.28 772.24-9.28L772.24-9.28Q771.31-9.28 770.37-9.99 769.43-10.69 768.82-11.96 768.21-13.23 768.21-14.84L768.21-14.84Q768.21-17.31 769.13-18.7 770.04-20.09 771.88-20.09L771.88-20.09ZM768.21-0.07L772.46-0.07Q774.83-0.07 776.1 0.11 777.37 0.29 777.97 0.83 778.56 1.37 778.56 2.44L778.56 2.44Q778.56 4.71 776.99 5.76 775.42 6.81 772.8 6.81L772.8 6.81Q766.94 6.81 766.94 2.64L766.94 2.64Q766.94 1.64 767.22 1.04 767.51 0.44 767.86 0.15 768.21-0.15 768.21-0.07L768.21-0.07Z" opacity="1" transform="matrix(1,0,0,1,0,0)" fill="black" class="slogan-text-1" id="SvgjsPath1105" stroke-width="5" stroke="black" stroke-linejoin="round"></path></svg></g></svg></g></svg></g></svg></g></svg></g></svg></g></svg></g></mask><g mask="url(#9a00a06b-be9b-4e25-ad4a-7d3b2e88a617)"><g><path xmlns="http://www.w3.org/2000/svg" d="M294.771 247.211h-194.022v-27.817l26.635-5.146v-181.157l-26.635-5.076v-28.026h189.989v65.231h-35.675l-2.504-29.695h-79v65.995h85.259v35.815h-85.259v74.549h83.381l2.573-30.39h35.258z" fill="#233565" fill-rule="nonzero" stroke="none" stroke-width="1" stroke-linecap="butt" stroke-linejoin="miter" stroke-miterlimit="10" stroke-dasharray="" stroke-dashoffset="0" font-family="none" font-weight="none" font-size="none" text-anchor="none" style="mix-blend-mode: normal" data-fill-palette-color="tertiary"></path></g></g><g transform="matrix(1,0,0,1,0,71.24454818330162)"><svg viewBox="0 0 395.52 104.71090363339675" height="104.71090363339675" width="395.52"><g><svg viewBox="0 0 395.52 104.71090363339675" height="104.71090363339675" width="395.52"><g><svg viewBox="0 0 395.52 104.71090363339675" height="104.71090363339675" width="395.52"><g><svg viewBox="0 0 395.52 104.71090363339675" height="104.71090363339675" width="395.52"><g id="textblocktransform"><svg viewBox="0 0 395.52 104.71090363339675" height="104.71090363339675" width="395.52" id="textblock"><g><svg viewBox="0 0 395.52 72.46977121192313" height="72.46977121192313" width="395.52"><g transform="matrix(1,0,0,1,0,0)"><svg width="395.52" viewBox="-1.5099999904632568 -38.54999923706055 225.0800018310547 42.05999755859375" height="72.46977121192313" data-palette-color="#233565"><path d="M29.39 0L1.49 0 1.49-4 5.32-4.74 5.32-30.79 1.49-31.52 1.49-35.55 28.81-35.55 28.81-26.17 23.68-26.17 23.32-30.44 11.96-30.44 11.96-20.95 24.22-20.95 24.22-15.8 11.96-15.8 11.96-5.08 23.95-5.08 24.32-9.45 29.39-9.45 29.39 0ZM48.78 0L33.4 0 33.4-4 37.25-4.81 37.25-30.71 33.4-31.52 33.4-35.55 37.25-35.55 48.65-35.55Q53.42-35.55 57.02-33.3 60.62-31.05 62.64-27.12 64.67-23.19 64.67-18.09L64.67-18.09 64.67-17.43Q64.67-12.4 62.68-8.46 60.69-4.52 57.11-2.26 53.54 0 48.78 0L48.78 0ZM43.89-30.42L43.89-5.1 48.44-5.1Q51.49-5.1 53.61-6.71 55.73-8.33 56.87-11.11 58.01-13.89 58.01-17.43L58.01-17.43 58.01-18.14Q58.01-21.73 56.87-24.5 55.73-27.27 53.61-28.85 51.49-30.42 48.44-30.42L48.44-30.42 43.89-30.42ZM85.22 0.51L85.22 0.51Q81.1 0.51 77.96-0.94 74.82-2.39 73.07-5.16 71.31-7.93 71.31-11.87L71.31-11.87 71.31-30.79 67.5-31.52 67.5-35.55 81.78-35.55 81.78-31.52 77.95-30.79 77.95-11.87Q77.95-9.45 78.84-7.84 79.73-6.23 81.37-5.42 83-4.61 85.22-4.61L85.22-4.61Q87.5-4.61 89.16-5.41 90.82-6.2 91.71-7.81 92.6-9.42 92.6-11.87L92.6-11.87 92.6-30.79 88.76-31.52 88.76-35.55 103.07-35.55 103.07-31.52 99.24-30.79 99.24-11.87Q99.24-7.91 97.48-5.14 95.72-2.37 92.57-0.93 89.42 0.51 85.22 0.51ZM120.04 0L105.73 0 105.73-4 109.54-4.74 109.54-30.79 105.73-31.52 105.73-35.55 109.54-35.55 119.23-35.55 129.29-10.3 129.44-10.3 139.18-35.55 152.75-35.55 152.75-31.52 148.92-30.79 148.92-4.74 152.75-4 152.75 0 138.44 0 138.44-4 142.47-4.74 142.47-12.28 142.57-28.08 142.45-28.1 131.61-0.66 126.7-0.66 115.59-27.93 115.45-27.91 115.84-12.87 115.84-4.74 120.04-4 120.04 0ZM165.18 0L153.48 0 153.48-4 156.04-4.37 167.59-35.55 174.21-35.55 185.66-4.37 188.2-4 188.2 0 176.5 0 176.5-4 179.02-4.47 177.28-9.69 164.42-9.69 162.69-4.47 165.18-4 165.18 0ZM170.42-27.29L166.05-14.7 175.65-14.7 171.28-27.34 170.94-28.37 170.79-28.37 170.42-27.29ZM205.14 0L190.83 0 190.83-4 194.67-4.74 194.67-30.79 190.83-31.52 190.83-35.55 194.67-35.55 207.63-35.55Q211.66-35.55 214.55-34.14 217.44-32.74 219.01-30.21 220.57-27.69 220.57-24.34L220.57-24.34Q220.57-20.97 219.01-18.47 217.44-15.97 214.55-14.58 211.66-13.18 207.63-13.18L207.63-13.18 201.31-13.18 201.31-4.74 205.14-4 205.14 0ZM201.31-30.42L201.31-18.31 207.63-18.31Q210.75-18.31 212.34-20 213.93-21.68 213.93-24.29L213.93-24.29Q213.93-26.93 212.34-28.67 210.75-30.42 207.63-30.42L207.63-30.42 201.31-30.42Z" opacity="1" transform="matrix(1,0,0,1,0,0)" fill="#233565" class="wordmark-text-0" data-fill-palette-color="primary" id="text-0"></path></svg></g></svg></g><g transform="matrix(1,0,0,1,2.5,81.75707738799844)"><svg viewBox="0 0 390.52 22.953826245398314" height="22.953826245398314" width="390.52"><g transform="matrix(1,0,0,1,0,0)"><svg width="390.52" viewBox="-2.439999997615814 -34.8799991607666 788.77001953125 47.29999923706055" height="22.953826245398314" data-palette-color="#233565"><path d="M0.56-30.37L0.76-22.51 2.98-22.19 4.27-28.13 11.47-28.13 11.47-2.95 7.35-1.81 7.18 0 20.34 0 20.68-1.95 16.16-2.78 16.16-28.13 23.61-28.13 24.54-22.49 26.86-22.12 27.69-30.37 0.56-30.37ZM41.77 0L42.01-2.12 36.33-2.95 36.33-12.3Q36.57-14.04 37.29-15.23 38.01-16.43 38.89-17.03 39.77-17.63 40.5-17.63L40.5-17.63Q41.21-17.63 41.99-17.37 42.77-17.11 43.48-16.67L43.48-16.67Q44.87-17.85 44.87-19.38L44.87-19.38Q44.87-20.48 44.11-21.3 43.36-22.12 42.16-22.12L42.16-22.12Q41.06-22.12 39.94-21.37 38.82-20.63 37.81-19.14 36.81-17.65 36.18-15.53L36.18-15.53 35.72-15.53 36.2-21.14 35.64-21.73 28.64-20.83 28.29-18.97 32.27-17.77 32.27-2.78 28.54-1.81 28.29 0 41.77 0ZM56.56 0.66Q59.39 0.66 61.74-0.78 64.08-2.22 65.44-4.83 66.79-7.45 66.79-10.77L66.79-10.77Q66.79-14.11 65.63-16.66 64.47-19.21 62.29-20.63 60.1-22.05 57.15-22.05L57.15-22.05Q54.37-22.05 51.94-20.65 49.51-19.26 48.02-16.61 46.53-13.96 46.53-10.4L46.53-10.4Q46.53-7.23 47.71-4.72 48.9-2.22 51.15-0.78 53.41 0.66 56.56 0.66L56.56 0.66ZM56.12-19.48Q58.3-19.48 59.72-17.88 61.15-16.28 61.8-13.84 62.45-11.4 62.45-8.76L62.45-8.76Q62.45-6.96 61.88-5.35 61.32-3.74 60.18-2.72 59.03-1.71 57.39-1.71L57.39-1.71Q55.12-1.71 53.66-3.2 52.19-4.69 51.53-7.06 50.87-9.42 50.87-12.13L50.87-12.13Q50.87-14.14 51.44-15.81 52-17.48 53.18-18.48 54.37-19.48 56.12-19.48L56.12-19.48ZM71.89-17.77L71.89-6.52Q71.89-2.78 73.34-1.11 74.8 0.56 77.34 0.56L77.34 0.56Q81.73 0.56 84.32-3.2L84.32-3.2 84.64-3.2 84.64-2.98Q84.64-1.39 85.55-0.42 86.47 0.56 88.22 0.56L88.22 0.56Q89.3 0.56 90.03 0.46 90.76 0.37 91.91 0.1L91.91 0.1 92.13-1.93 91.01-2.17Q90.01-2.39 89.49-2.64 88.98-2.88 88.68-3.48 88.37-4.08 88.37-5.25L88.37-5.25 88.37-20.97 87.86-21.56 80.68-20.9 80.44-18.65 84.32-17.63 84.32-4.66Q83.44-3.76 82.38-3.27 81.32-2.78 79.78-2.78L79.78-2.78Q76.02-2.78 76.02-7.74L76.02-7.74 76.02-20.97 75.41-21.56 68.86-21.04 68.52-19.12 71.89-17.77ZM92.37-19.48L95.35-18.46 102.14 0.68 105.24 0.24 111.9-18.51 114.54-19.51 114.83-21.31 105.48-21.31 105.14-19.48 109.07-18.46 104.38-4.74 99.79-18.51 103.33-19.51 103.53-21.31 92.62-21.31 92.37-19.48ZM125.06 0.73Q127.45 0.73 129.54-0.13 131.63-1 133.09-2.54L133.09-2.54 132.58-3.83Q131.38-3.2 130.48-2.91 129.58-2.61 128.89-2.55 128.21-2.49 127.04-2.49L127.04-2.49Q124.89-2.49 123.39-3.72 121.89-4.96 121.11-6.88 120.32-8.81 120.23-10.86L120.23-10.86 132.04-11.01Q132.19-11.65 132.31-12.63 132.43-13.62 132.43-14.18L132.43-14.18Q132.43-16.67 131.57-18.42 130.7-20.17 129.21-21.06 127.72-21.95 125.92-21.95L125.92-21.95Q123.47-21.95 121.15-20.56 118.84-19.17 117.36-16.55 115.88-13.94 115.88-10.45L115.88-10.45Q115.88-6.91 117.18-4.37 118.47-1.83 120.58-0.55 122.69 0.73 125.06 0.73L125.06 0.73ZM124.72-19.56Q128.09-19.56 128.09-15.01L128.09-15.01Q128.09-14.65 128.05-14.12 128.01-13.6 127.94-13.33L127.94-13.33 120.28-12.77Q120.4-15.01 121.07-16.54 121.74-18.07 122.72-18.81 123.69-19.56 124.72-19.56L124.72-19.56ZM135.46-2.12L135.56 0 151.94 0 152.96-6.52 151.33-6.71 149.01-2.42 140.22-2.42 152.48-19.51 152.48-21.31 136.07-21.31 135.87-14.84 137.75-14.53 139.19-19.04 147.42-19.04 135.46-2.12ZM161.06-28.52L164.65-27.49 174.86 0.59 178.57-0.1 188.94-27.59 192.17-28.52 192.34-30.37 181.23-30.37 181.06-28.52 185.5-27.49 177.69-6.13 170.05-27.59 174.2-28.52 174.44-30.37 161.31-30.37 161.06-28.52ZM204.23 0.66Q207.06 0.66 209.4-0.78 211.75-2.22 213.1-4.83 214.46-7.45 214.46-10.77L214.46-10.77Q214.46-14.11 213.3-16.66 212.14-19.21 209.95-20.63 207.77-22.05 204.81-22.05L204.81-22.05Q202.03-22.05 199.6-20.65 197.17-19.26 195.68-16.61 194.19-13.96 194.19-10.4L194.19-10.4Q194.19-7.23 195.38-4.72 196.56-2.22 198.82-0.78 201.08 0.66 204.23 0.66L204.23 0.66ZM203.79-19.48Q205.96-19.48 207.39-17.88 208.82-16.28 209.46-13.84 210.11-11.4 210.11-8.76L210.11-8.76Q210.11-6.96 209.55-5.35 208.99-3.74 207.84-2.72 206.69-1.71 205.06-1.71L205.06-1.71Q202.79-1.71 201.32-3.2 199.86-4.69 199.2-7.06 198.54-9.42 198.54-12.13L198.54-12.13Q198.54-14.14 199.1-15.81 199.66-17.48 200.84-18.48 202.03-19.48 203.79-19.48L203.79-19.48ZM219.51-18.63L219.41-6.35Q219.38-2.54 220.76-0.99 222.14 0.56 224.61 0.56L224.61 0.56Q226.66 0.56 228.37-0.39 230.08-1.34 231.23-3.03L231.23-3.03 230.71-4.35Q230.71-4.32 230.14-3.96 229.56-3.59 228.78-3.28 228-2.98 227.2-2.98L227.2-2.98Q225.9-2.98 225.12-3.42 224.34-3.86 223.97-4.91 223.61-5.96 223.61-7.79L223.61-7.79 223.68-18.58 230.42-18.58 230.64-20.73 223.73-20.73 223.73-26.54 222.44-26.54Q221.12-24.73 219.51-22.95 217.89-21.17 216.41-19.95L216.41-19.95 216.41-18.63 219.51-18.63ZM246.02 0L246.26-2.12 240.57-2.95 240.57-12.3Q240.82-14.04 241.54-15.23 242.26-16.43 243.14-17.03 244.02-17.63 244.75-17.63L244.75-17.63Q245.46-17.63 246.24-17.37 247.02-17.11 247.73-16.67L247.73-16.67Q249.12-17.85 249.12-19.38L249.12-19.38Q249.12-20.48 248.36-21.3 247.6-22.12 246.41-22.12L246.41-22.12Q245.31-22.12 244.19-21.37 243.06-20.63 242.06-19.14 241.06-17.65 240.43-15.53L240.43-15.53 239.96-15.53 240.45-21.14 239.89-21.73 232.88-20.83 232.54-18.97 236.52-17.77 236.52-2.78 232.79-1.81 232.54 0 246.02 0ZM259.98 0.73Q262.37 0.73 264.46-0.13 266.55-1 268.01-2.54L268.01-2.54 267.5-3.83Q266.3-3.2 265.4-2.91 264.5-2.61 263.81-2.55 263.13-2.49 261.96-2.49L261.96-2.49Q259.81-2.49 258.31-3.72 256.81-4.96 256.02-6.88 255.24-8.81 255.15-10.86L255.15-10.86 266.96-11.01Q267.11-11.65 267.23-12.63 267.35-13.62 267.35-14.18L267.35-14.18Q267.35-16.67 266.49-18.42 265.62-20.17 264.13-21.06 262.64-21.95 260.83-21.95L260.83-21.95Q258.39-21.95 256.07-20.56 253.75-19.17 252.28-16.55 250.8-13.94 250.8-10.45L250.8-10.45Q250.8-6.91 252.09-4.37 253.39-1.83 255.5-0.55 257.61 0.73 259.98 0.73L259.98 0.73ZM259.64-19.56Q263.01-19.56 263.01-15.01L263.01-15.01Q263.01-14.65 262.97-14.12 262.93-13.6 262.86-13.33L262.86-13.33 255.19-12.77Q255.32-15.01 255.99-16.54 256.66-18.07 257.64-18.81 258.61-19.56 259.64-19.56L259.64-19.56ZM289.74 0Q295.74 0 299.94-2.19 304.14-4.37 306.25-8 308.36-11.62 308.36-15.94L308.36-15.94Q308.36-20.04 306.73-23.34 305.09-26.64 301.17-28.67 297.26-30.71 290.76-30.71L290.76-30.71Q285.83-30.71 278.24-29.52L278.24-29.52 278.02-27.66 282.22-26.93 282.22-3.15 278.02-1.81 277.67 0 289.74 0ZM286.88-28.1Q287.86-28.2 289.86-28.2L289.86-28.2Q294.2-28.2 297.21-26.4 300.21-24.61 301.71-21.52 303.21-18.43 303.21-14.6L303.21-14.6Q303.21-11.23 301.78-8.5 300.36-5.76 297.47-4.15 294.59-2.54 290.42-2.54L290.42-2.54 286.88-2.54 286.88-28.1ZM319.4 0.73Q321.79 0.73 323.88-0.13 325.96-1 327.43-2.54L327.43-2.54 326.92-3.83Q325.72-3.2 324.82-2.91 323.91-2.61 323.23-2.55 322.55-2.49 321.37-2.49L321.37-2.49Q319.23-2.49 317.72-3.72 316.22-4.96 315.44-6.88 314.66-8.81 314.56-10.86L314.56-10.86 326.38-11.01Q326.53-11.65 326.65-12.63 326.77-13.62 326.77-14.18L326.77-14.18Q326.77-16.67 325.9-18.42 325.04-20.17 323.55-21.06 322.06-21.95 320.25-21.95L320.25-21.95Q317.81-21.95 315.49-20.56 313.17-19.17 311.69-16.55 310.22-13.94 310.22-10.45L310.22-10.45Q310.22-6.91 311.51-4.37 312.8-1.83 314.92-0.55 317.03 0.73 319.4 0.73L319.4 0.73ZM319.05-19.56Q322.42-19.56 322.42-15.01L322.42-15.01Q322.42-14.65 322.39-14.12 322.35-13.6 322.28-13.33L322.28-13.33 314.61-12.77Q314.73-15.01 315.4-16.54 316.08-18.07 317.05-18.81 318.03-19.56 319.05-19.56L319.05-19.56ZM336.8 0.83Q338.68 0.83 340.43 0.02 342.17-0.78 343.25-2.21 344.32-3.64 344.32-5.37L344.32-5.37Q344.32-7.01 343.47-8.26 342.61-9.52 341.4-10.38 340.19-11.23 338.24-12.3L338.24-12.3Q336.63-13.21 335.73-13.82 334.82-14.43 334.21-15.22 333.6-16.02 333.6-16.99L333.6-16.99Q333.6-18.21 334.35-19.07 335.09-19.92 336.34-19.92L336.34-19.92Q337.75-19.92 338.73-18.54 339.71-17.16 340.15-14.38L340.15-14.38Q341.73-14.48 342.65-15.36 343.56-16.24 343.56-17.63L343.56-17.63Q343.56-18.85 342.82-19.84 342.07-20.83 340.71-21.4 339.34-21.97 337.58-21.97L337.58-21.97Q335.26-21.97 333.61-20.98 331.97-20 331.14-18.51 330.31-17.02 330.31-15.5L330.31-15.5Q330.31-13.75 331.2-12.4 332.09-11.06 333.35-10.14 334.6-9.23 336.61-8.08L336.61-8.08Q338.07-7.25 338.89-6.7 339.71-6.15 340.24-5.48 340.78-4.81 340.78-4.03L340.78-4.03Q340.78-2.76 339.88-2.16 338.97-1.56 337.56-1.56L337.56-1.56Q336.04-1.56 334.77-2.77 333.5-3.98 332.7-6.37L332.7-6.37Q331.33-6.27 330.53-5.3 329.72-4.32 329.72-2.95L329.72-2.95Q329.72-1.98 330.6-1.1 331.48-0.22 333.09 0.31 334.7 0.83 336.8 0.83L336.8 0.83ZM349.3-18.63L349.2-6.35Q349.18-2.54 350.56-0.99 351.94 0.56 354.4 0.56L354.4 0.56Q356.45 0.56 358.16-0.39 359.87-1.34 361.02-3.03L361.02-3.03 360.5-4.35Q360.5-4.32 359.93-3.96 359.36-3.59 358.58-3.28 357.79-2.98 356.99-2.98L356.99-2.98Q355.69-2.98 354.91-3.42 354.13-3.86 353.77-4.91 353.4-5.96 353.4-7.79L353.4-7.79 353.47-18.58 360.21-18.58 360.43-20.73 353.52-20.73 353.52-26.54 352.23-26.54Q350.91-24.73 349.3-22.95 347.69-21.17 346.2-19.95L346.2-19.95 346.2-18.63 349.3-18.63ZM368.07-26.12Q368.85-26.12 369.55-26.53 370.24-26.93 370.65-27.61 371.05-28.3 371.05-29.1L371.05-29.1Q371.05-30.27 370.17-31.08 369.29-31.88 368.07-31.88L368.07-31.88Q366.9-31.88 366.03-31.09 365.16-30.3 365.16-29.15L365.16-29.15Q365.16-28.34 365.56-27.65 365.95-26.95 366.62-26.54 367.29-26.12 368.07-26.12L368.07-26.12ZM362.26 0L373.98 0 374.25-1.95 370.34-2.83 370.34-21 369.73-21.61 362.87-21.04 362.55-19.19 366.24-17.85 366.24-2.83 362.55-1.93 362.26 0ZM386.74 0L387.09-1.93 383.45-2.78 383.45-16.48Q384.35-17.48 385.62-18.03 386.89-18.58 388.26-18.58L388.26-18.58Q390.19-18.58 391.35-17.47 392.51-16.36 392.51-14.09L392.51-14.09 392.51-2.78 389.14-1.78 388.89 0 399.85 0 400.1-1.93 396.58-2.78 396.58-15.04Q396.58-18.33 395.07-20.14 393.56-21.95 390.7-21.95L390.7-21.95Q388.55-21.95 386.65-20.85 384.74-19.75 383.35-18.09L383.35-18.09 383.11-18.09 383.52-21.22 383.11-21.68 375.83-20.73 375.59-18.87 379.35-17.6 379.35-2.78 375.66-1.78 375.42 0 386.74 0ZM406.32 0.59Q408.96 0.59 410.63-0.62 412.3-1.83 413.01-3.2L413.01-3.2 413.28-3.2 413.28-2.83Q413.28-2.03 413.66-1.28 414.04-0.54 414.89-0.05 415.75 0.44 417.06 0.44L417.06 0.44Q418.09 0.44 419.26 0.17L419.26 0.17Q420.02 0.02 420.38-0.02L420.38-0.02 420.7-2.12 419.48-2.34Q418.33-2.54 417.76-2.87 417.19-3.2 416.97-3.82 416.75-4.44 416.75-5.62L416.75-5.62 416.75-14.48Q416.75-18.38 415.34-20.18 413.94-21.97 410.72-21.97L410.72-21.97Q409.01-21.97 407.03-21.26 405.05-20.56 403.71-19.4 402.37-18.24 402.37-16.97L402.37-16.97Q402.37-15.38 403.34-14.92 404.32-14.45 405.76-14.45L405.76-14.45Q405.98-16.92 406.14-17.85 406.3-18.77 406.81-19.24 407.32-19.7 408.47-19.7L408.47-19.7Q410.79-19.7 411.79-17.86 412.79-16.02 412.79-13.18L412.79-13.18 412.79-11.84Q408.98-11.57 406.46-10.44 403.93-9.3 402.73-7.64 401.54-5.98 401.54-4.1L401.54-4.1Q401.54-2.66 402.18-1.6 402.83-0.54 403.93 0.02 405.03 0.59 406.32 0.59L406.32 0.59ZM412.79-10.45L412.79-4.59Q412.06-3.78 410.89-3.1 409.72-2.42 408.54-2.42L408.54-2.42Q407.69-2.42 407.07-2.86 406.44-3.3 406.13-3.96 405.81-4.61 405.81-5.25L405.81-5.25Q405.81-7.13 407.4-8.41 408.98-9.69 412.79-10.45L412.79-10.45ZM424.43-18.63L424.34-6.35Q424.31-2.54 425.69-0.99 427.07 0.56 429.54 0.56L429.54 0.56Q431.59 0.56 433.3-0.39 435.01-1.34 436.15-3.03L436.15-3.03 435.64-4.35Q435.64-4.32 435.07-3.96 434.49-3.59 433.71-3.28 432.93-2.98 432.13-2.98L432.13-2.98Q430.83-2.98 430.05-3.42 429.27-3.86 428.9-4.91 428.54-5.96 428.54-7.79L428.54-7.79 428.61-18.58 435.35-18.58 435.57-20.73 428.66-20.73 428.66-26.54 427.36-26.54Q426.05-24.73 424.43-22.95 422.82-21.17 421.33-19.95L421.33-19.95 421.33-18.63 424.43-18.63ZM443.21-26.12Q443.99-26.12 444.68-26.53 445.38-26.93 445.78-27.61 446.19-28.3 446.19-29.1L446.19-29.1Q446.19-30.27 445.31-31.08 444.43-31.88 443.21-31.88L443.21-31.88Q442.03-31.88 441.17-31.09 440.3-30.3 440.3-29.15L440.3-29.15Q440.3-28.34 440.69-27.65 441.08-26.95 441.75-26.54 442.43-26.12 443.21-26.12L443.21-26.12ZM437.4 0L449.11 0 449.38-1.95 445.48-2.83 445.48-21 444.87-21.61 438.01-21.04 437.69-19.19 441.38-17.85 441.38-2.83 437.69-1.93 437.4 0ZM460.95 0.66Q463.79 0.66 466.13-0.78 468.47-2.22 469.83-4.83 471.18-7.45 471.18-10.77L471.18-10.77Q471.18-14.11 470.02-16.66 468.86-19.21 466.68-20.63 464.49-22.05 461.54-22.05L461.54-22.05Q458.76-22.05 456.33-20.65 453.9-19.26 452.41-16.61 450.92-13.96 450.92-10.4L450.92-10.4Q450.92-7.23 452.1-4.72 453.29-2.22 455.55-0.78 457.8 0.66 460.95 0.66L460.95 0.66ZM460.51-19.48Q462.69-19.48 464.11-17.88 465.54-16.28 466.19-13.84 466.84-11.4 466.84-8.76L466.84-8.76Q466.84-6.96 466.28-5.35 465.71-3.74 464.57-2.72 463.42-1.71 461.78-1.71L461.78-1.71Q459.51-1.71 458.05-3.2 456.58-4.69 455.92-7.06 455.26-9.42 455.26-12.13L455.26-12.13Q455.26-14.14 455.83-15.81 456.39-17.48 457.57-18.48 458.76-19.48 460.51-19.48L460.51-19.48ZM484.68 0L485.02-1.93 481.39-2.78 481.39-16.48Q482.29-17.48 483.56-18.03 484.83-18.58 486.19-18.58L486.19-18.58Q488.12-18.58 489.28-17.47 490.44-16.36 490.44-14.09L490.44-14.09 490.44-2.78 487.07-1.78 486.83 0 497.79 0 498.04-1.93 494.52-2.78 494.52-15.04Q494.52-18.33 493.01-20.14 491.49-21.95 488.64-21.95L488.64-21.95Q486.49-21.95 484.58-20.85 482.68-19.75 481.29-18.09L481.29-18.09 481.04-18.09 481.46-21.22 481.04-21.68 473.77-20.73 473.52-18.87 477.28-17.6 477.28-2.78 473.6-1.78 473.35 0 484.68 0ZM515.05 0.51Q517.37 0.51 518.98-0.51 520.59-1.54 521.81-3.2L521.81-3.2 522.03-3.2 522.03-3.03Q522.03-1.44 522.97-0.44 523.91 0.56 525.67 0.56L525.67 0.56Q526.77 0.56 527.46 0.48 528.16 0.39 529.26 0.1L529.26 0.1 529.52-1.93 528.43-2.17Q527.38-2.42 526.88-2.62 526.38-2.83 526.07-3.43 525.77-4.03 525.77-5.25L525.77-5.25 525.77-31.03 525.25-31.62 518.47-31.03 518.12-29.2 521.83-27.86 521.83-24.02 522.13-20.9 521.96-20.9Q521.35-21.34 520.15-21.66 518.95-21.97 517.76-21.97L517.76-21.97Q515.22-21.97 512.74-20.36 510.26-18.75 508.68-15.94 507.09-13.13 507.09-9.74L507.09-9.74Q507.09-6.49 508.15-4.17 509.21-1.86 511.03-0.67 512.85 0.51 515.05 0.51L515.05 0.51ZM516.59-19.58Q517.88-19.58 519.38-18.68 520.88-17.77 521.81-16.26L521.81-16.26 521.81-4.81Q521.1-3.98 519.65-3.27 518.2-2.56 516.78-2.56L516.78-2.56Q515.22-2.56 514-3.55 512.78-4.54 512.08-6.51 511.39-8.47 511.39-11.28L511.39-11.28Q511.39-15.06 512.63-17.32 513.88-19.58 516.59-19.58L516.59-19.58ZM531.08-31.79L532.4-21.78 534.67-22.05 535.55-31.4 531.08-31.79ZM536.28 0L547.71 0 547.98-1.95 543.44-3.03 545.9-10.55 556.13-10.55 558.79-3.15 554.62-1.81 554.32 0 566.9 0 567.12-1.95 563.77-3.03 554.25-30.96 550.56-30.2 540.14-3.15 536.5-1.81 536.28 0ZM546.83-13.04L551.37-25.24 555.42-13.04 546.83-13.04ZM579.81 9.08L580.1 7.13 576.29 6.27 576.29-16.26Q577.27-17.29 578.58-18.02 579.88-18.75 581.3-18.75L581.3-18.75Q583.62-18.75 584.79-16.52 585.96-14.28 585.96-9.91L585.96-9.91Q585.96-6.37 584.64-4.27 583.33-2.17 580.86-2.17L580.86-2.17Q579.42-2.17 578.69-2.28 577.95-2.39 577.12-2.71L577.12-2.71 577.27 0.24Q578.49 0.46 579.57 0.46L579.57 0.46Q582.67 0.46 585.14-1.05 587.62-2.56 589.03-5.27 590.43-7.98 590.43-11.4L590.43-11.4Q590.43-14.99 589.48-17.35 588.53-19.7 586.87-20.83 585.21-21.95 583.03-21.95L583.03-21.95Q580.88-21.95 579.18-20.75 577.47-19.56 576.29-17.92L576.29-17.92 576.12-17.92 576.47-21.07 575.95-21.53 568.85-20.63 568.56-18.75 572.32-17.63 572.32 6.25 568.58 7.18 568.43 9.08 579.81 9.08ZM603.44 9.08L603.73 7.13 599.92 6.27 599.92-16.26Q600.9-17.29 602.21-18.02 603.51-18.75 604.93-18.75L604.93-18.75Q607.25-18.75 608.42-16.52 609.59-14.28 609.59-9.91L609.59-9.91Q609.59-6.37 608.27-4.27 606.96-2.17 604.49-2.17L604.49-2.17Q603.05-2.17 602.32-2.28 601.59-2.39 600.76-2.71L600.76-2.71 600.9 0.24Q602.12 0.46 603.2 0.46L603.2 0.46Q606.3 0.46 608.78-1.05 611.25-2.56 612.66-5.27 614.06-7.98 614.06-11.4L614.06-11.4Q614.06-14.99 613.11-17.35 612.16-19.7 610.5-20.83 608.84-21.95 606.66-21.95L606.66-21.95Q604.51-21.95 602.81-20.75 601.1-19.56 599.92-17.92L599.92-17.92 599.75-17.92 600.1-21.07 599.58-21.53 592.48-20.63 592.19-18.75 595.95-17.63 595.95 6.25 592.21 7.18 592.06 9.08 603.44 9.08ZM629.83 0L630.07-2.12 624.39-2.95 624.39-12.3Q624.63-14.04 625.35-15.23 626.07-16.43 626.95-17.03 627.83-17.63 628.56-17.63L628.56-17.63Q629.27-17.63 630.05-17.37 630.83-17.11 631.54-16.67L631.54-16.67Q632.93-17.85 632.93-19.38L632.93-19.38Q632.93-20.48 632.17-21.3 631.42-22.12 630.22-22.12L630.22-22.12Q629.12-22.12 628-21.37 626.88-20.63 625.87-19.14 624.87-17.65 624.24-15.53L624.24-15.53 623.78-15.53 624.26-21.14 623.7-21.73 616.69-20.83 616.35-18.97 620.33-17.77 620.33-2.78 616.6-1.81 616.35 0 629.83 0ZM643.79 0.73Q646.18 0.73 648.27-0.13 650.36-1 651.82-2.54L651.82-2.54 651.31-3.83Q650.12-3.2 649.21-2.91 648.31-2.61 647.63-2.55 646.94-2.49 645.77-2.49L645.77-2.49Q643.62-2.49 642.12-3.72 640.62-4.96 639.84-6.88 639.06-8.81 638.96-10.86L638.96-10.86 650.77-11.01Q650.92-11.65 651.04-12.63 651.17-13.62 651.17-14.18L651.17-14.18Q651.17-16.67 650.3-18.42 649.43-20.17 647.94-21.06 646.45-21.95 644.65-21.95L644.65-21.95Q642.21-21.95 639.89-20.56 637.57-19.17 636.09-16.55 634.61-13.94 634.61-10.45L634.61-10.45Q634.61-6.91 635.91-4.37 637.2-1.83 639.31-0.55 641.42 0.73 643.79 0.73L643.79 0.73ZM643.45-19.56Q646.82-19.56 646.82-15.01L646.82-15.01Q646.82-14.65 646.78-14.12 646.75-13.6 646.67-13.33L646.67-13.33 639.01-12.77Q639.13-15.01 639.8-16.54 640.47-18.07 641.45-18.81 642.42-19.56 643.45-19.56L643.45-19.56ZM665.13 0L665.47-1.93 661.83-2.78 661.83-16.48Q662.73-17.48 664-18.03 665.27-18.58 666.64-18.58L666.64-18.58Q668.57-18.58 669.73-17.47 670.89-16.36 670.89-14.09L670.89-14.09 670.89-2.78 667.52-1.78 667.28 0 678.24 0 678.48-1.93 674.97-2.78 674.97-15.04Q674.97-18.33 673.45-20.14 671.94-21.95 669.08-21.95L669.08-21.95Q666.93-21.95 665.03-20.85 663.13-19.75 661.73-18.09L661.73-18.09 661.49-18.09 661.9-21.22 661.49-21.68 654.21-20.73 653.97-18.87 657.73-17.6 657.73-2.78 654.04-1.78 653.8 0 665.13 0ZM682.56-18.63L682.46-6.35Q682.43-2.54 683.81-0.99 685.19 0.56 687.66 0.56L687.66 0.56Q689.71 0.56 691.42-0.39 693.13-1.34 694.28-3.03L694.28-3.03 693.76-4.35Q693.76-4.32 693.19-3.96 692.62-3.59 691.83-3.28 691.05-2.98 690.25-2.98L690.25-2.98Q688.95-2.98 688.17-3.42 687.39-3.86 687.02-4.91 686.66-5.96 686.66-7.79L686.66-7.79 686.73-18.58 693.47-18.58 693.69-20.73 686.78-20.73 686.78-26.54 685.49-26.54Q684.17-24.73 682.56-22.95 680.95-21.17 679.46-19.95L679.46-19.95 679.46-18.63 682.56-18.63ZM701.33-26.12Q702.11-26.12 702.81-26.53 703.5-26.93 703.9-27.61 704.31-28.3 704.31-29.1L704.31-29.1Q704.31-30.27 703.43-31.08 702.55-31.88 701.33-31.88L701.33-31.88Q700.16-31.88 699.29-31.09 698.42-30.3 698.42-29.15L698.42-29.15Q698.42-28.34 698.81-27.65 699.2-26.95 699.88-26.54 700.55-26.12 701.33-26.12L701.33-26.12ZM695.52 0L707.24 0 707.51-1.95 703.6-2.83 703.6-21 702.99-21.61 696.13-21.04 695.81-19.19 699.5-17.85 699.5-2.83 695.81-1.93 695.52 0ZM716.07 0.83Q717.95 0.83 719.7 0.02 721.44-0.78 722.52-2.21 723.59-3.64 723.59-5.37L723.59-5.37Q723.59-7.01 722.74-8.26 721.88-9.52 720.67-10.38 719.47-11.23 717.51-12.3L717.51-12.3Q715.9-13.21 715-13.82 714.09-14.43 713.48-15.22 712.87-16.02 712.87-16.99L712.87-16.99Q712.87-18.21 713.62-19.07 714.36-19.92 715.61-19.92L715.61-19.92Q717.02-19.92 718-18.54 718.98-17.16 719.42-14.38L719.42-14.38Q721-14.48 721.92-15.36 722.83-16.24 722.83-17.63L722.83-17.63Q722.83-18.85 722.09-19.84 721.35-20.83 719.98-21.4 718.61-21.97 716.85-21.97L716.85-21.97Q714.53-21.97 712.89-20.98 711.24-20 710.41-18.51 709.58-17.02 709.58-15.5L709.58-15.5Q709.58-13.75 710.47-12.4 711.36-11.06 712.62-10.14 713.87-9.23 715.88-8.08L715.88-8.08Q717.34-7.25 718.16-6.7 718.98-6.15 719.51-5.48 720.05-4.81 720.05-4.03L720.05-4.03Q720.05-2.76 719.15-2.16 718.24-1.56 716.83-1.56L716.83-1.56Q715.32-1.56 714.05-2.77 712.78-3.98 711.97-6.37L711.97-6.37Q710.6-6.27 709.8-5.3 708.99-4.32 708.99-2.95L708.99-2.95Q708.99-1.98 709.87-1.1 710.75-0.22 712.36 0.31 713.97 0.83 716.07 0.83L716.07 0.83ZM733.09 0.83Q734.97 0.83 736.71 0.02 738.46-0.78 739.53-2.21 740.61-3.64 740.61-5.37L740.61-5.37Q740.61-7.01 739.75-8.26 738.9-9.52 737.69-10.38 736.48-11.23 734.53-12.3L734.53-12.3Q732.92-13.21 732.01-13.82 731.11-14.43 730.5-15.22 729.89-16.02 729.89-16.99L729.89-16.99Q729.89-18.21 730.63-19.07 731.38-19.92 732.62-19.92L732.62-19.92Q734.04-19.92 735.01-18.54 735.99-17.16 736.43-14.38L736.43-14.38Q738.02-14.48 738.93-15.36 739.85-16.24 739.85-17.63L739.85-17.63Q739.85-18.85 739.1-19.84 738.36-20.83 736.99-21.4 735.63-21.97 733.87-21.97L733.87-21.97Q731.55-21.97 729.9-20.98 728.25-20 727.42-18.51 726.59-17.02 726.59-15.5L726.59-15.5Q726.59-13.75 727.48-12.4 728.37-11.06 729.63-10.14 730.89-9.23 732.89-8.08L732.89-8.08Q734.36-7.25 735.17-6.7 735.99-6.15 736.53-5.48 737.07-4.81 737.07-4.03L737.07-4.03Q737.07-2.76 736.16-2.16 735.26-1.56 733.84-1.56L733.84-1.56Q732.33-1.56 731.06-2.77 729.79-3.98 728.98-6.37L728.98-6.37Q727.62-6.27 726.81-5.3 726.01-4.32 726.01-2.95L726.01-2.95Q726.01-1.98 726.89-1.1 727.76-0.22 729.38 0.31 730.99 0.83 733.09 0.83L733.09 0.83ZM747.73 0.59Q750.37 0.59 752.04-0.62 753.71-1.83 754.42-3.2L754.42-3.2 754.69-3.2 754.69-2.83Q754.69-2.03 755.07-1.28 755.45-0.54 756.3-0.05 757.16 0.44 758.47 0.44L758.47 0.44Q759.5 0.44 760.67 0.17L760.67 0.17Q761.43 0.02 761.79-0.02L761.79-0.02 762.11-2.12 760.89-2.34Q759.74-2.54 759.17-2.87 758.6-3.2 758.38-3.82 758.16-4.44 758.16-5.62L758.16-5.62 758.16-14.48Q758.16-18.38 756.75-20.18 755.35-21.97 752.13-21.97L752.13-21.97Q750.42-21.97 748.44-21.26 746.46-20.56 745.12-19.4 743.78-18.24 743.78-16.97L743.78-16.97Q743.78-15.38 744.75-14.92 745.73-14.45 747.17-14.45L747.17-14.45Q747.39-16.92 747.55-17.85 747.71-18.77 748.22-19.24 748.73-19.7 749.88-19.7L749.88-19.7Q752.2-19.7 753.2-17.86 754.2-16.02 754.2-13.18L754.2-13.18 754.2-11.84Q750.39-11.57 747.87-10.44 745.34-9.3 744.14-7.64 742.95-5.98 742.95-4.1L742.95-4.1Q742.95-2.66 743.59-1.6 744.24-0.54 745.34 0.02 746.44 0.59 747.73 0.59L747.73 0.59ZM754.2-10.45L754.2-4.59Q753.47-3.78 752.3-3.1 751.13-2.42 749.95-2.42L749.95-2.42Q749.1-2.42 748.48-2.86 747.85-3.3 747.54-3.96 747.22-4.61 747.22-5.25L747.22-5.25Q747.22-7.13 748.81-8.41 750.39-9.69 754.2-10.45L754.2-10.45ZM771.48 9.42Q774.22 9.42 776.83 8.25 779.44 7.08 781.07 5.19 782.69 3.3 782.69 1.22L782.69 1.22Q782.69-1.34 780.8-2.51 778.91-3.69 775.93-3.69L775.93-3.69 772.61-3.69Q769.97-3.69 769.06-4.14 768.14-4.59 768.14-5.44L768.14-5.44Q768.14-6.32 769.36-7.59L769.36-7.59Q769.65-7.52 770.29-7.43 770.92-7.35 771.56-7.35L771.56-7.35Q773.46-7.35 775.38-8.26 777.3-9.18 778.55-10.84 779.81-12.5 779.81-14.62L779.81-14.62Q779.81-15.45 779.54-16.41 779.27-17.36 778.98-18.02L778.98-18.02 778.98-18.43 781.98-17.46 782.37-17.46 783.33-20.17 782.84-20.73Q782.08-20.65 780.32-20.52 778.56-20.39 777.59-20.34L777.59-20.34Q775.46-21.88 772.46-21.88L772.46-21.88Q770.43-21.88 768.54-20.84 766.65-19.8 765.48-18.07 764.31-16.33 764.31-14.38L764.31-14.38Q764.31-12.87 765-11.5 765.7-10.13 766.65-9.24 767.6-8.35 768.29-8.18L768.29-8.18 768.29-8.01Q767.38-7.64 766.42-6.93 765.45-6.23 764.83-5.43 764.21-4.64 764.21-4L764.21-4Q764.21-2.95 764.82-2.08 765.43-1.2 766.55-0.66L766.55-0.66 766.55-0.44Q762.65 1.78 762.65 3.96L762.65 3.96Q762.65 6.86 765.15 8.14 767.65 9.42 771.48 9.42L771.48 9.42ZM771.88-20.09Q773.1-20.09 773.99-19.19 774.88-18.29 775.35-16.92 775.83-15.55 775.83-14.16L775.83-14.16Q775.83-11.67 774.89-10.47 773.95-9.28 772.24-9.28L772.24-9.28Q771.31-9.28 770.37-9.99 769.43-10.69 768.82-11.96 768.21-13.23 768.21-14.84L768.21-14.84Q768.21-17.31 769.13-18.7 770.04-20.09 771.88-20.09L771.88-20.09ZM768.21-0.07L772.46-0.07Q774.83-0.07 776.1 0.11 777.37 0.29 777.97 0.83 778.56 1.37 778.56 2.44L778.56 2.44Q778.56 4.71 776.99 5.76 775.42 6.81 772.8 6.81L772.8 6.81Q766.94 6.81 766.94 2.64L766.94 2.64Q766.94 1.64 767.22 1.04 767.51 0.44 767.86 0.15 768.21-0.15 768.21-0.07L768.21-0.07Z" opacity="1" transform="matrix(1,0,0,1,0,0)" fill="#233565" class="slogan-text-1" data-fill-palette-color="secondary" id="text-1"></path></svg></g></svg></g></svg></g></svg></g></svg></g></svg></g></svg></g></svg></g><defs></defs></svg><rect width="395.52" height="247.2" fill="none" stroke="none" visibility="hidden"></rect></g></svg></g></svg>